<svg xmlns="http://www.w3.org/2000/svg" width="3958.115" height="1055.368" viewBox="0 0 3958.115 1055.368"><g transform="translate(-781 -444)"><path d="M255.158,585.59c66.617,0,121.721-25.5,161.2-68.262V650.573l145.3-22.04.273-757.095H405.664V92.951C367.832,54.3,316.841,32.913,255.158,32.913c-140.637,0-249.2,112.674-249.2,276.339C5.96,473.739,114.522,585.59,255.158,585.59ZM163.046,308.429c0-74.842,49.346-125.01,120.076-125.01,69.907,0,120.076,50.169,120.076,125.01,0,75.664-50.169,126.655-120.076,126.655C212.392,435.084,163.046,384.093,163.046,308.429Z" transform="translate(775.04 724.117)" fill="#ff4b03"/><path d="M0,0H1400.373V156.208H0Z" transform="translate(1180.626 444)" fill="#ff4b03"/><path d="M0,0H1389.334V156.208H0Z" transform="translate(1191.391 1343.16)" fill="#ff4b03"/><path d="M255.158,585.59c66.617,0,121.721-25.5,161.2-68.262V650.573l145.3-22.04.273-757.095H405.664V92.951C367.832,54.3,316.841,32.913,255.158,32.913c-140.637,0-249.2,112.674-249.2,276.339C5.96,473.739,114.522,585.59,255.158,585.59ZM163.046,308.429c0-74.842,49.346-125.01,120.076-125.01,69.907,0,120.076,50.169,120.076,125.01,0,75.664-50.169,126.655-120.076,126.655C212.392,435.084,163.046,384.093,163.046,308.429Z" transform="translate(775.04 724.117)" fill="#ff4b03"/><path d="M0,0H1400.373V156.208H0Z" transform="translate(1180.626 444)" fill="#ff4b03"/><path d="M0,0H1389.334V156.208H0Z" transform="translate(1191.391 1343.16)" fill="#ff4b03"/><text transform="translate(1313.114 1301)" fill="#ff4b03" font-size="823" font-family="FranieTest-Bold, Franie Test" font-weight="700"><tspan x="0" y="0">ReNew</tspan></text></g></svg>