<?xml version="1.0" encoding="utf-8"?>
<!-- Generator: Adobe Illustrator 28.0.0, SVG Export Plug-In . SVG Version: 6.00 Build 0)  -->
<svg version="1.1" id="Calque_1" xmlns="http://www.w3.org/2000/svg" xmlns:xlink="http://www.w3.org/1999/xlink" x="0px" y="0px"
	 viewBox="0 0 528 528" style="enable-background:new 0 0 528 528;" xml:space="preserve">
<style type="text/css">
	.st0{fill:url(#SVGID_1_);fill-opacity:6.000000e-02;}
	.st1{fill:none;stroke:url(#SVGID_00000082333883316419104480000015076751393564077228_);stroke-opacity:0.15;}
	.st2{fill:url(#SVGID_00000140005406069417158310000005949065747731864725_);fill-opacity:5.000000e-02;}
	.st3{fill:none;stroke:url(#SVGID_00000158721478782351906960000009169152807984076730_);stroke-opacity:0.15;}
	.st4{fill:url(#SVGID_00000098930353435023635280000005797101344324847252_);fill-opacity:4.000000e-02;}
	.st5{fill:none;stroke:url(#SVGID_00000001660458346691287930000006598508519464480158_);stroke-opacity:0.15;}
	.st6{fill:url(#SVGID_00000106841831521934613400000010810801470580133043_);fill-opacity:5.000000e-02;}
	.st7{fill:none;stroke:url(#SVGID_00000165202852430685984670000008123904903525477563_);stroke-opacity:0.15;}
	.st8{fill:url(#Rectangle_9_00000161624580441323097360000006007499511101566384_);}
	.st9{fill:url(#Rectangle_5_00000024695746548959257480000007581047481395349395_);}
	.st10{fill:url(#Rectangle_10_00000031927121902510368160000011801382955138852788_);}
	.st11{fill:url(#Rectangle_7_00000148639016199238520790000015886011164165309848_);}
	.st12{fill:url(#Rectangle_8_00000159455246621089129100000012316656514521353390_);}
</style>
<linearGradient id="SVGID_1_" gradientUnits="userSpaceOnUse" x1="264" y1="480" x2="264" y2="52" gradientTransform="matrix(1 0 0 -1 0 530)">
	<stop  offset="0" style="stop-color:#FFFFFF;stop-opacity:0.48"/>
	<stop  offset="0.5" style="stop-color:#FFFFFF"/>
	<stop  offset="1" style="stop-color:#FFFFFF;stop-opacity:0"/>
</linearGradient>
<circle class="st0" cx="264" cy="264" r="214"/>
<linearGradient id="SVGID_00000067946427396450769490000010001576242588678333_" gradientUnits="userSpaceOnUse" x1="264" y1="480" x2="264" y2="52" gradientTransform="matrix(1 0 0 -1 0 530)">
	<stop  offset="0" style="stop-color:#FFFFFF;stop-opacity:0.4"/>
	<stop  offset="0.5052" style="stop-color:#FFFFFF"/>
	<stop  offset="1" style="stop-color:#FFFFFF;stop-opacity:0"/>
</linearGradient>
<circle style="fill:none;stroke:url(#SVGID_00000067946427396450769490000010001576242588678333_);stroke-opacity:0.15;" cx="264" cy="264" r="214.5"/>
<g>
	
		<linearGradient id="SVGID_00000079479578346088680980000014693255358123881877_" gradientUnits="userSpaceOnUse" x1="264" y1="428.248" x2="264" y2="103.752" gradientTransform="matrix(1 0 0 -1 0 530)">
		<stop  offset="0" style="stop-color:#FFFFFF;stop-opacity:0.48"/>
		<stop  offset="0.5" style="stop-color:#FFFFFF"/>
		<stop  offset="1" style="stop-color:#FFFFFF;stop-opacity:0"/>
	</linearGradient>
	
		<circle shape-rendering="crispEdges" style="fill:url(#SVGID_00000079479578346088680980000014693255358123881877_);fill-opacity:5.000000e-02;" cx="264" cy="264" r="162.2"/>
	
		<linearGradient id="SVGID_00000040576027666061507460000015380194151210006678_" gradientUnits="userSpaceOnUse" x1="264" y1="428.248" x2="264" y2="103.752" gradientTransform="matrix(1 0 0 -1 0 530)">
		<stop  offset="0" style="stop-color:#FFFFFF;stop-opacity:0.4"/>
		<stop  offset="0.5052" style="stop-color:#FFFFFF"/>
		<stop  offset="1" style="stop-color:#FFFFFF;stop-opacity:0"/>
	</linearGradient>
	
		<circle shape-rendering="crispEdges" style="fill:none;stroke:url(#SVGID_00000040576027666061507460000015380194151210006678_);stroke-opacity:0.15;" cx="264" cy="264" r="162.7"/>
</g>
<g>
	
		<linearGradient id="SVGID_00000009585440455106246790000018019570279058836663_" gradientUnits="userSpaceOnUse" x1="264.001" y1="376.497" x2="264.001" y2="155.503" gradientTransform="matrix(1 0 0 -1 0 530)">
		<stop  offset="0" style="stop-color:#FFFFFF;stop-opacity:0.48"/>
		<stop  offset="0.5" style="stop-color:#FFFFFF"/>
		<stop  offset="1" style="stop-color:#FFFFFF;stop-opacity:0"/>
	</linearGradient>
	
		<circle shape-rendering="crispEdges" style="fill:url(#SVGID_00000009585440455106246790000018019570279058836663_);fill-opacity:4.000000e-02;" cx="264" cy="264" r="110.5"/>
	
		<linearGradient id="SVGID_00000047772893525200135980000010877681484842510994_" gradientUnits="userSpaceOnUse" x1="264.001" y1="376.497" x2="264.001" y2="155.503" gradientTransform="matrix(1 0 0 -1 0 530)">
		<stop  offset="0" style="stop-color:#FFFFFF;stop-opacity:0.4"/>
		<stop  offset="0.5052" style="stop-color:#FFFFFF"/>
		<stop  offset="1" style="stop-color:#FFFFFF;stop-opacity:0"/>
	</linearGradient>
	
		<circle shape-rendering="crispEdges" style="fill:none;stroke:url(#SVGID_00000047772893525200135980000010877681484842510994_);stroke-opacity:0.15;" cx="264" cy="264" r="111"/>
</g>
<g>
	
		<linearGradient id="SVGID_00000082362906117208649390000005299695386957705662_" gradientUnits="userSpaceOnUse" x1="264" y1="327.5425" x2="264" y2="204.4575" gradientTransform="matrix(1 0 0 -1 0 530)">
		<stop  offset="0" style="stop-color:#FFFFFF;stop-opacity:0.48"/>
		<stop  offset="0.5" style="stop-color:#FFFFFF"/>
		<stop  offset="1" style="stop-color:#FFFFFF;stop-opacity:0"/>
	</linearGradient>
	
		<circle shape-rendering="crispEdges" style="fill:url(#SVGID_00000082362906117208649390000005299695386957705662_);fill-opacity:5.000000e-02;" cx="264" cy="264" r="61.5"/>
	
		<linearGradient id="SVGID_00000037660745644820256470000000540902581250636204_" gradientUnits="userSpaceOnUse" x1="264" y1="327.542" x2="264" y2="204.458" gradientTransform="matrix(1 0 0 -1 0 530)">
		<stop  offset="0" style="stop-color:#FFFFFF;stop-opacity:0.4"/>
		<stop  offset="0.5052" style="stop-color:#FFFFFF"/>
		<stop  offset="1" style="stop-color:#FFFFFF;stop-opacity:0"/>
	</linearGradient>
	
		<circle shape-rendering="crispEdges" style="fill:none;stroke:url(#SVGID_00000037660745644820256470000000540902581250636204_);stroke-opacity:0.15;" cx="264" cy="264" r="62"/>
</g>
<g id="Groupe_1" transform="translate(-177 -177)">
	
		<linearGradient id="Rectangle_9_00000049213867074899240260000009158778450792868261_" gradientUnits="userSpaceOnUse" x1="-516.5862" y1="981.2457" x2="-516.5539" y2="981.1534" gradientTransform="matrix(670 0 0 -670 346542 657842)">
		<stop  offset="0" style="stop-color:#272727"/>
		<stop  offset="1" style="stop-color:#141414"/>
	</linearGradient>
	<path id="Rectangle_9" style="fill:url(#Rectangle_9_00000049213867074899240260000009158778450792868261_);" d="M426.1,409.3h29.7
		c9.3,0,16.8,7.5,16.8,16.8v29.7c0,9.3-7.5,16.8-16.8,16.8h-29.7c-9.3,0-16.8-7.5-16.8-16.8v-29.7
		C409.3,416.8,416.8,409.3,426.1,409.3z"/>
	
		<linearGradient id="Rectangle_5_00000052804384763461100470000003972833978335561387_" gradientUnits="userSpaceOnUse" x1="-510.3064" y1="980.2917" x2="-510.3064" y2="980.1971" gradientTransform="matrix(106 0 0 -218 54519 214127)">
		<stop  offset="0" style="stop-color:#FFFFFF"/>
		<stop  offset="1" style="stop-color:#B9B9B9"/>
	</linearGradient>
	<path id="Rectangle_5" style="fill:url(#Rectangle_5_00000052804384763461100470000003972833978335561387_);" d="M426.5,423.4
		L426.5,423.4c2.8,0,5,2.2,5,5V439c0,2.8-2.2,5-5,5l0,0c-2.8,0-5-2.2-5-5v-10.6C421.5,425.6,423.8,423.4,426.5,423.4z"/>
	
		<linearGradient id="Rectangle_10_00000165234615659370298790000018226912739050429318_" gradientUnits="userSpaceOnUse" x1="-512.92" y1="980.2917" x2="-512.92" y2="980.1971" gradientTransform="matrix(106 0 0 -218 54825 214127)">
		<stop  offset="0" style="stop-color:#FFFFFF"/>
		<stop  offset="1" style="stop-color:#B9B9B9"/>
	</linearGradient>
	<path id="Rectangle_10" style="fill:url(#Rectangle_10_00000165234615659370298790000018226912739050429318_);" d="M455.5,423.4
		L455.5,423.4c2.8,0,5,2.2,5,5V439c0,2.8-2.2,5-5,5l0,0c-2.8,0-5-2.2-5-5v-10.6C450.5,425.6,452.7,423.4,455.5,423.4z"/>
	
		<linearGradient id="Rectangle_7_00000059310397457170819090000000824368885585733038_" gradientUnits="userSpaceOnUse" x1="-511.1109" y1="977.7391" x2="-511.1138" y2="977.6768" gradientTransform="matrix(25 -43.3013 -132.5019 -76.5 142760.5938 53122.3438)">
		<stop  offset="0" style="stop-color:#00F68B"/>
		<stop  offset="1" style="stop-color:#009C58"/>
	</linearGradient>
	<path id="Rectangle_7" style="fill:url(#Rectangle_7_00000059310397457170819090000000824368885585733038_);" d="M430.5,457.2
		L430.5,457.2c0.7-1.1,2.1-1.5,3.2-0.9l8.4,4.9c1.1,0.7,1.5,2.1,0.9,3.2l0,0c-0.7,1.1-2.1,1.5-3.2,0.9l-8.4-4.9
		C430.3,459.7,429.9,458.3,430.5,457.2z"/>
	
		<linearGradient id="Rectangle_8_00000075155253652166089810000018342810012544268984_" gradientUnits="userSpaceOnUse" x1="-511.4124" y1="984.8024" x2="-511.4042" y2="984.7328" gradientTransform="matrix(25 43.3013 132.5019 -76.5 -117251.6016 97939.1562)">
		<stop  offset="0" style="stop-color:#00FF90"/>
		<stop  offset="1" style="stop-color:#009C58"/>
	</linearGradient>
	<path id="Rectangle_8" style="fill:url(#Rectangle_8_00000075155253652166089810000018342810012544268984_);" d="M451.5,457.2
		L451.5,457.2c0.7,1.1,0.3,2.6-0.9,3.2l-8.4,4.9c-1.1,0.7-2.6,0.3-3.2-0.9l0,0c-0.7-1.1-0.3-2.6,0.9-3.2l8.4-4.9
		C449.4,455.6,450.8,456,451.5,457.2z"/>
</g>
</svg>
