<?xml version="1.0" encoding="utf-8"?>
<!-- Generator: Adobe Illustrator 28.0.0, SVG Export Plug-In . SVG Version: 6.00 Build 0)  -->
<svg version="1.1" xmlns="http://www.w3.org/2000/svg" xmlns:xlink="http://www.w3.org/1999/xlink" x="0px" y="0px"
	 viewBox="0 0 32 32" style="enable-background:new 0 0 32 32;" xml:space="preserve">
<style type="text/css">
	.st0{fill:#0020FF;}
	.st1{fill:#001AA9;}
	.st2{fill:#FFFFFF;}
	.st3{fill:#FFFFFF;stroke:#0020FF;stroke-width:1.685106e-02;stroke-miterlimit:10;}
	.st4{fill:#FFFFFF;stroke:#001AA9;stroke-width:0.5055;stroke-miterlimit:10;}
</style>
<g id="Calque_1">
	<g>
		<path class="st0" d="M16,24.9C4.3,24.7,4.3,7.3,16,7.1C27.7,7.3,27.7,24.7,16,24.9z"/>
		<path class="st1" d="M14.3,16.9c-0.6-1.3-1-1.1,0.3-1.7c-0.3-1.1-0.1-2.8,1.7-3.7c0.6-0.4,2.7-0.7,3.9,1.1c1.3,1.7,0,4.9-2.6,4.8
			l-0.1,0.8c0,0,0,0.3-0.3,0.2c-0.3,0-1-0.2-1-0.2s-0.2,0-0.2-0.2S14,20.7,14,20.7s-0.4,0.7-1.1,0.1c-0.7-0.6-0.3-1-0.3-1L14.3,16.9
			L14.3,16.9z"/>
		<path class="st2" d="M13.9,15.1l0.4,0.8c0.1,0.2,0,0.4-0.1,0.4c-0.3,0.1-0.8,0.6-1,0.2c0,0-0.4-0.8-0.4-0.8
			c-0.1-0.2,0-0.4,0.1-0.4C13.2,15.1,13.7,14.6,13.9,15.1z"/>
		<path class="st2" d="M16.2,16.8l-0.9-0.2c-0.2,0-0.3,0.1-0.4,0.3c0,0.3-0.3,1,0.2,1c0,0,0.9,0.2,0.9,0.2c0.2,0,0.3-0.1,0.4-0.3
			C16.4,17.6,16.7,16.9,16.2,16.8z"/>
		<path class="st2" d="M18.3,11.5c-3.3-2.4-6.9,2.5-3.7,5C18,18.9,21.6,14,18.3,11.5z M16.5,16.6c-3.4-0.1-3.4-5.1,0-5.1
			C19.9,11.5,19.9,16.6,16.5,16.6z"/>
		<path class="st3" d="M18.2,13.5c-0.9,1.3-0.4,0.9-1.9,1c-0.1,0-0.1,0-0.1-0.1l-0.4-1.1c-0.1,0,0.6-1,0.7-1c0.1-0.1,0-0.2-0.1-0.2
			c-1.7,0.1-2.4,2.6-0.9,3.6c0.9,0.6,2.1,0.4,2.7-0.5c0.3-0.5,0.4-1.1,0.3-1.6C18.4,13.5,18.2,13.4,18.2,13.5z"/>
		<path class="st4" d="M14.6,15.6c0.2,0.2,0.5,0.5,0.9,0.7c0.2,0.1,0.2,0.2,0.1,0.4l-2.7,3.8c0,0-0.5,0.6-1.1,0.1
			c-0.1-0.1-0.6-0.4-0.3-1c0,0,2.7-3.9,2.8-3.9C14.3,15.4,14.5,15.4,14.6,15.6z"/>
	</g>
</g>
<g id="Calque_2">
</g>
</svg>
