<?xml version="1.0" encoding="utf-8"?>
<!-- Generator: Adobe Illustrator 28.0.0, SVG Export Plug-In . SVG Version: 6.00 Build 0)  -->
<svg version="1.1" id="Calque_1" xmlns="http://www.w3.org/2000/svg" xmlns:xlink="http://www.w3.org/1999/xlink" x="0px" y="0px"
	 viewBox="0 0 32 32" style="enable-background:new 0 0 32 32;" xml:space="preserve">
<style type="text/css">
	.st0{fill:url(#SVGID_1_);}
	.st1{fill:url(#SVGID_00000042709722385523478750000005559316469746983859_);}
</style>
<linearGradient id="SVGID_1_" gradientUnits="userSpaceOnUse" x1="16" y1="24.7778" x2="16" y2="7.2222">
	<stop  offset="0" style="stop-color:#0C4596"/>
	<stop  offset="1" style="stop-color:#737FBD"/>
</linearGradient>
<path class="st0" d="M16,24.8L16,24.8c-4.8,0-8.8-3.9-8.8-8.8v-0.2c0-4.7,3.8-8.5,8.5-8.5H16c4.8,0,8.8,3.9,8.8,8.8v0
	C24.8,20.8,20.8,24.8,16,24.8z"/>
<g>
	
		<image style="overflow:visible;opacity:0.35;" width="191" height="191" xlink:href="ADE7104A.png"  transform="matrix(1 0 0 1 -57 -51)">
	</image>
	<g>
		
			<linearGradient id="SVGID_00000077311076741411659220000015802584783890404240_" gradientUnits="userSpaceOnUse" x1="13.8699" y1="13.5092" x2="19.3653" y2="19.9458">
			<stop  offset="0" style="stop-color:#F5F5F5"/>
			<stop  offset="0.4002" style="stop-color:#F3F4F4"/>
			<stop  offset="0.5443" style="stop-color:#ECEFF2"/>
			<stop  offset="0.6471" style="stop-color:#E1E6EE"/>
			<stop  offset="0.7302" style="stop-color:#D0D9E8"/>
			<stop  offset="0.8014" style="stop-color:#BAC9E1"/>
			<stop  offset="0.8644" style="stop-color:#9EB5D7"/>
			<stop  offset="0.9214" style="stop-color:#7E9DCC"/>
			<stop  offset="0.9721" style="stop-color:#5A83BF"/>
			<stop  offset="0.9946" style="stop-color:#4775B9"/>
		</linearGradient>
		<path style="fill:url(#SVGID_00000077311076741411659220000015802584783890404240_);" d="M15.5,14.3l-1.4,1.3
			c-0.3,0.2-0.6,0.4-1,0.4h-0.5c-1,0-1.7,1.1-1.3,2c0.8,1.8,2.5,3.1,4.6,3.1c2.9,0.1,5.3-2.3,5.2-5.2c0-2.1-1.3-3.8-3.1-4.6
			c-1-0.4-2,0.3-2,1.3v0.6C16,13.6,15.8,14,15.5,14.3z"/>
	</g>
</g>
</svg>
